<?xml version="1.0" encoding="UTF-8" standalone="no"?>
<!DOCTYPE svg PUBLIC "-//W3C//DTD SVG 1.1//EN" "http://www.w3.org/Graphics/SVG/1.1/DTD/svg11.dtd">
<!-- Generated by Microsoft Visio, SVG Export block-storage.svg Page-1 -->
<svg xmlns="http://www.w3.org/2000/svg" xmlns:xlink="http://www.w3.org/1999/xlink" xmlns:ev="http://www.w3.org/2001/xml-events"
		xmlns:v="http://schemas.microsoft.com/visio/2003/SVGExtensions/" 
		viewBox="0 0 523.5 370.5" xml:space="preserve" color-interpolation-filters="sRGB" class="st12">
	<v:documentProperties v:langID="1033" v:viewMarkup="false">
		<v:userDefs>
			<v:ud v:nameU="msvSubprocessMaster" v:prompt="" v:val="VT4(Rectangle)"/>
			<v:ud v:nameU="msvNoAutoConnect" v:val="VT0(1):26"/>
		</v:userDefs>
	</v:documentProperties>

	<style type="text/css">
	<![CDATA[
		.st1 {fill:#282a36;stroke:none;stroke-width:0.25}
		.st2 {fill:none;stroke:#84ffbc;stroke-dasharray:11.25,6.75;stroke-width:0.75}
		.st3 {fill:#ffffff;font-family:Calibri;font-size:0.833336em}
		.st4 {fill:#282a36;stroke:#c7c8c8;stroke-width:0.25}
		.st5 {fill:#282a36}
		.st6 {stroke:#c8c8c8;stroke-width:0.25}
		.st7 {fill:#feffff;font-family:Calibri;font-size:0.666664em}
		.st8 {fill:none;stroke:#84ffbc;stroke-width:0.75}
		.st9 {fill:none;stroke:#c7c8c8;stroke-dasharray:1.75,1.25;stroke-width:0.25}
		.st10 {font-size:1em}
		.st11 {fill:#bdd0e9;stroke:#30518f;stroke-width:0.75}
		.st12 {fill:none;fill-rule:evenodd;font-size:12px;overflow:visible;stroke-linecap:square;stroke-miterlimit:3}
	]]>
	</style>

	<g v:mID="4" v:index="1" v:groupContext="backgroundPage">
		<v:userDefs>
			<v:ud v:nameU="msvThemeOrder" v:val="VT0(0):26"/>
			<v:ud v:nameU="msvVisioCreated" v:prompt="" v:val="VT0(0):26"/>
		</v:userDefs>
		<title>VBackground-1</title>
		<v:pageProperties width="7.27083" height="5.14583" v:drawingScale="1" v:pageScale="1" v:drawingUnits="0"
				v:shadowOffsetX="9" v:shadowOffsetY="-9"/>
		<g id="shape1-1" v:mID="1" v:groupContext="shape">
			<title>Solid</title>
			<v:userDefs>
				<v:ud v:nameU="Background" v:val="VT0(0):26"/>
				<v:ud v:nameU="visVersion" v:val="VT0(15):26"/>
				<v:ud v:nameU="msvShapeCategories" v:prompt="" v:val="VT4(DoNotContain)"/>
				<v:ud v:nameU="msvVisioCreated" v:prompt="" v:val="VT0(0):26"/>
			</v:userDefs>
			<rect x="0" y="0" width="523.5" height="370.5" class="st1"/>
		</g>
	</g>
	<g v:mID="0" v:index="2" v:groupContext="foregroundPage">
		<v:userDefs>
			<v:ud v:nameU="msvThemeOrder" v:val="VT0(0):26"/>
		</v:userDefs>
		<title>Page-1</title>
		<v:pageProperties v:drawingScale="1" v:pageScale="1" v:drawingUnits="0" v:shadowOffsetX="9" v:shadowOffsetY="-9"/>
		<v:layer v:name="Flowchart" v:index="0"/>
		<g id="shape8-3" v:mID="8" v:groupContext="shape" transform="translate(18.75,-126.75)">
			<title>Square</title>
			<desc>POD-0</desc>
			<v:userDefs>
				<v:ud v:nameU="visVersion" v:val="VT0(15):26"/>
			</v:userDefs>
			<v:textBlock v:margins="rect(4,4,4,4)"/>
			<v:textRect cx="112.5" cy="258" width="225" height="225"/>
			<path d="M0 370.5 L225 370.5 L225 145.5 L0 145.5 L0 370.5 Z" class="st2"/>
			<text x="99.47" y="261" class="st3" v:langID="1033"><v:paragraph v:horizAlign="1"/><v:tabList/>POD-0</text>		</g>
		<g id="shape9-6" v:mID="9" v:groupContext="shape" transform="translate(32.25,-144.75)">
			<title>Rectangle</title>
			<desc>EPHEMERAL DATA</desc>
			<v:userDefs>
				<v:ud v:nameU="visVersion" v:val="VT0(15):26"/>
			</v:userDefs>
			<v:textBlock v:margins="rect(4,4,4,4)"/>
			<v:textRect cx="60.75" cy="334.5" width="121.5" height="72"/>
			<rect x="0" y="298.5" width="121.5" height="72" class="st4"/>
			<text x="23.31" y="337.5" class="st3" v:langID="1033"><v:paragraph v:horizAlign="1"/><v:tabList/>EPHEMERAL DATA</text>		</g>
		<g id="shape11-9" v:mID="11" v:groupContext="shape" v:layerMember="0" transform="translate(95.25,-27.75)">
			<title>Disk storage</title>
			<desc>PVC-0</desc>
			<v:custProps>
				<v:cp v:nameU="Cost" v:lbl="Cost" v:type="7" v:format="@" v:langID="1033"/>
				<v:cp v:nameU="Duration" v:lbl="Duration" v:type="2" v:langID="1033"/>
				<v:cp v:nameU="Resources" v:lbl="Resources" v:langID="1033"/>
			</v:custProps>
			<v:userDefs>
				<v:ud v:nameU="visVersion" v:val="VT0(15):26"/>
			</v:userDefs>
			<v:textBlock v:margins="rect(2,2,2,2)"/>
			<v:textRect cx="36" cy="354.3" width="72" height="32.4"/>
			<path d="M0 323.7 L0 363.3 A36 7.2 -180 1 0 72 363.3 L72 323.7 A36 7.2 -180 0 0 0 323.7 Z" class="st5"/>
			<path d="M0 323.7 L0 363.3 A36 7.2 -180 1 0 72 363.3 L72 323.7 A36 7.2 -180 0 0 0 323.7" class="st6"/>
			<path d="M0 323.7 A36 7.2 -180 1 0 72 323.7" class="st6"/>
			<path d="M0 327.3 A36 7.2 -180 1 0 72 327.3" class="st6"/>
			<text x="26.28" y="356.7" class="st7" v:langID="1033"><v:paragraph v:horizAlign="1"/><v:tabList/>PVC-0</text>		</g>
		<g id="shape13-15" v:mID="13" v:groupContext="shape" transform="translate(43.5,-18.75)">
			<title>Rectangle.13</title>
			<v:userDefs>
				<v:ud v:nameU="visVersion" v:val="VT0(15):26"/>
			</v:userDefs>
			<rect x="0" y="298.5" width="175.5" height="72" class="st8"/>
		</g>
		<g id="shape14-17" v:mID="14" v:groupContext="shape" transform="translate(164.01,-144.75)">
			<title>Rectangle.14</title>
			<desc>PVC REF</desc>
			<v:userDefs>
				<v:ud v:nameU="visVersion" v:val="VT0(15):26"/>
			</v:userDefs>
			<v:textBlock v:margins="rect(4,4,4,4)"/>
			<v:textRect cx="36" cy="334.5" width="72" height="72"/>
			<path d="M0 370.5 L72 370.5 L72 298.5 L0 298.5 L0 370.5 Z" class="st9"/>
			<text x="27.91" y="331.5" class="st3" v:langID="1033"><v:paragraph v:horizAlign="1"/><v:tabList/>PVC<v:newlineChar/><tspan
						x="28.55" dy="1.2em" class="st10">REF</tspan></text>		</g>
		<g id="shape15-21" v:mID="15" v:groupContext="shape" transform="translate(-97.5855,-11.6339) rotate(-38.144)">
			<title>Simple Arrow</title>
			<v:userDefs>
				<v:ud v:nameU="visVersion" v:val="VT0(15):26"/>
				<v:ud v:nameU="ArrowType" v:prompt="" v:val="VT0(2):26"/>
			</v:userDefs>
			<path d="M0 370.5 L25.43 362.44 L25.43 366.47 L87.43 366.47 L87.43 370.5 L87.43 374.53 L25.43 374.53 L25.43 378.56 L0
						 370.5 Z" class="st11"/>
		</g>
		<g id="shape16-23" v:mID="16" v:groupContext="shape" transform="translate(279.75,-126.75)">
			<title>Square.16</title>
			<desc>POD-1</desc>
			<v:userDefs>
				<v:ud v:nameU="visVersion" v:val="VT0(15):26"/>
			</v:userDefs>
			<v:textBlock v:margins="rect(4,4,4,4)"/>
			<v:textRect cx="112.5" cy="258" width="225" height="225"/>
			<path d="M0 370.5 L225 370.5 L225 145.5 L0 145.5 L0 370.5 Z" class="st2"/>
			<text x="99.47" y="261" class="st3" v:langID="1033"><v:paragraph v:horizAlign="1"/><v:tabList/>POD-1</text>		</g>
		<g id="shape17-26" v:mID="17" v:groupContext="shape" transform="translate(293.25,-144.75)">
			<title>Rectangle.17</title>
			<desc>EPHEMERAL DATA</desc>
			<v:userDefs>
				<v:ud v:nameU="visVersion" v:val="VT0(15):26"/>
			</v:userDefs>
			<v:textBlock v:margins="rect(4,4,4,4)"/>
			<v:textRect cx="60.75" cy="334.5" width="121.5" height="72"/>
			<rect x="0" y="298.5" width="121.5" height="72" class="st4"/>
			<text x="23.31" y="337.5" class="st3" v:langID="1033"><v:paragraph v:horizAlign="1"/><v:tabList/>EPHEMERAL DATA</text>		</g>
		<g id="shape18-29" v:mID="18" v:groupContext="shape" v:layerMember="0" transform="translate(356.25,-27.75)">
			<title>Disk storage.18</title>
			<desc>PVC-1</desc>
			<v:custProps>
				<v:cp v:nameU="Cost" v:lbl="Cost" v:type="7" v:format="@" v:langID="1033"/>
				<v:cp v:nameU="Duration" v:lbl="Duration" v:type="2" v:langID="1033"/>
				<v:cp v:nameU="Resources" v:lbl="Resources" v:langID="1033"/>
			</v:custProps>
			<v:userDefs>
				<v:ud v:nameU="visVersion" v:val="VT0(15):26"/>
			</v:userDefs>
			<v:textBlock v:margins="rect(2,2,2,2)"/>
			<v:textRect cx="36" cy="354.3" width="72" height="32.4"/>
			<path d="M0 323.7 L0 363.3 A36 7.2 -180 1 0 72 363.3 L72 323.7 A36 7.2 -180 0 0 0 323.7 Z" class="st5"/>
			<path d="M0 323.7 L0 363.3 A36 7.2 -180 1 0 72 363.3 L72 323.7 A36 7.2 -180 0 0 0 323.7" class="st6"/>
			<path d="M0 323.7 A36 7.2 -180 1 0 72 323.7" class="st6"/>
			<path d="M0 327.3 A36 7.2 -180 1 0 72 327.3" class="st6"/>
			<text x="26.28" y="356.7" class="st7" v:langID="1033"><v:paragraph v:horizAlign="1"/><v:tabList/>PVC-1</text>		</g>
		<g id="shape19-35" v:mID="19" v:groupContext="shape" transform="translate(304.5,-18.75)">
			<title>Rectangle.19</title>
			<v:userDefs>
				<v:ud v:nameU="visVersion" v:val="VT0(15):26"/>
			</v:userDefs>
			<rect x="0" y="298.5" width="175.5" height="72" class="st8"/>
		</g>
		<g id="shape20-37" v:mID="20" v:groupContext="shape" transform="translate(425.01,-144.75)">
			<title>Rectangle.20</title>
			<desc>PVC REF</desc>
			<v:userDefs>
				<v:ud v:nameU="visVersion" v:val="VT0(15):26"/>
			</v:userDefs>
			<v:textBlock v:margins="rect(4,4,4,4)"/>
			<v:textRect cx="36" cy="334.5" width="72" height="72"/>
			<path d="M0 370.5 L72 370.5 L72 298.5 L0 298.5 L0 370.5 Z" class="st9"/>
			<text x="27.91" y="331.5" class="st3" v:langID="1033"><v:paragraph v:horizAlign="1"/><v:tabList/>PVC<v:newlineChar/><tspan
						x="28.55" dy="1.2em" class="st10">REF</tspan></text>		</g>
		<g id="shape21-41" v:mID="21" v:groupContext="shape" transform="translate(163.414,-11.6339) rotate(-38.144)">
			<title>Simple Arrow.21</title>
			<v:userDefs>
				<v:ud v:nameU="visVersion" v:val="VT0(15):26"/>
				<v:ud v:nameU="ArrowType" v:prompt="" v:val="VT0(2):26"/>
			</v:userDefs>
			<path d="M0 370.5 L25.43 362.44 L25.43 366.47 L87.43 366.47 L87.43 370.5 L87.43 374.53 L25.43 374.53 L25.43 378.56 L0
						 370.5 Z" class="st11"/>
		</g>
	</g>
</svg>
